<?xml version="1.0" standalone="no"?><svg xmlns="http://www.w3.org/2000/svg" viewBox="0 0 1440 320"><path fill="#fff8fe" fill-opacity="1" d="M0,192L30,202.7C60,213,120,235,180,250.7C240,267,300,277,360,261.3C420,245,480,203,540,154.7C600,107,660,53,720,42.7C780,32,840,64,900,112C960,160,1020,224,1080,208C1140,192,1200,96,1260,96C1320,96,1380,192,1410,240L1440,288L1440,0L1410,0C1380,0,1320,0,1260,0C1200,0,1140,0,1080,0C1020,0,960,0,900,0C840,0,780,0,720,0C660,0,600,0,540,0C480,0,420,0,360,0C300,0,240,0,180,0C120,0,60,0,30,0L0,0Z"></path></svg>